<svg id="ibis-icon" viewBox="0 0 758.66 725.75"><path d="m 489.74,147 c -0.47,0.69 -7.58,0.29 -8.45,0.35 A 214.14,214.14 0 0 0 458.43,150.27 244.19,244.19 0 0 0 386.7,175 c -14.36,7.66 -25.21,14.59 -37.58,25.16 -13.29,11.37 -30,29.22 -41,42.72 a 328.89,328.89 0 0 0 -33.21,48.69 377.26,377.26 0 0 0 -41.38,113.63 c -1.13,5.78 -2.12,11.59 -3.08,17.41 -0.63,3.82 -1.47,9.27 -1.87,13.18 -0.81,7.81 3.83,6.49 5.48,-1.33 0,0 14.1,-52.93 36,-94 21.9,-41.07 68.09,-105.9 171.6,-133.35 0,0 67.86,-17.53 86.93,0.24 19.07,17.77 5.36,47.76 5.36,47.76 0,0 -10.27,22.48 -32.63,47.9 -22.36,25.42 -70.56,72.78 -70.32,140.13 0.24,67.35 41.3,111.52 77.66,136.13 39,26.41 86.14,40.05 132.83,43.72 a 310.78,310.78 0 0 0 71.34,-2.46 c 12.47,-1.9 25.24,-4.31 37.18,-8.46 2.5,-0.87 21.81,-6.71 15.47,-12.49 -5.8,-5.28 -80.07,-13.51 -75.13,-75.12 0,0 3.21,-64.49 78.06,-59 43.91,3.21 68.78,50.28 71,97.16 2.26,47.43 -11.9,86.46 -39.28,123.82 -53.3,72.73 -132.25,108 -224,106.79 C 486.27,792 366.46,751.81 306.6,678.14 292.09,660.28 292.36,661 279.81,643 c -4.27,-6.15 -10.3,-15.43 -17.58,-28.47 -7.16,-12.84 -7.72,-19.53 -11.9,-19.81 -3.7,-0.25 -1.12,11.16 1.48,18 A 369.94,369.94 0 0 0 351,757 c 139,124.18 368.53,131.23 503,-13 36.94,-39.62 56.88,-89.84 66.93,-139 0,0 42.42,-166.32 -99.56,-301.85 0,0 -72.63,-61.86 -150.55,-75 0,0 -17.6,-5 -16.68,15.14 0,0 18.55,148.3 -112,170.57 0,0 -64.43,9.46 -32.06,-62.66 13.28,-29.59 39.23,-50.86 54.08,-79.52 14.85,-28.66 24.1,-60.64 25.59,-92.93 0.29,-6.24 0.28,-12.5 0,-18.74 l -1.12,-23.91 c 0,0 -1.24,-10.78 -12.55,-10.74 -11.31,0.04 -68.21,5.84 -68.21,5.84 0,0 -6,0 -9.66,3.76 -3.66,3.76 -6.21,8.79 -8.47,12.04 z m 235.48,3.35 c -7.56,3.4 -14.91,7.22 -22.38,11 l -28.77,14.57 a 4.67,4.67 0 0 0 -3,3.83 c -0.54,5.06 5.7,4.76 9.22,5.4 3.21,0.59 6.4,1.27 9.57,2 22.2,5.19 52.85,15.27 73.62,26 a 518.72,518.72 0 0 1 48.87,29.14 c 22.58,15.51 38.21,27.77 51.6,42.3 1.23,1.34 12.21,14.25 13.39,15.63 52.47,61.39 80.38,125 83.72,215.44 2,53.59 -22.54,127.88 -48.5,177.92 a 1.76,1.76 0 0 0 1.87,2.55 c 1.93,-0.36 3.86,-2.33 7.56,-8 40.64,-62.16 66.18,-140 65.07,-214.43 a 314.37,314.37 0 0 0 -7.32,-61.12 c -8.89,-41.38 -24.07,-83.11 -47.32,-118.64 -7.61,-11.64 -18.35,-27.8 -27.2,-38.52 a 394.17,394.17 0 0 0 -30.79,-33.17 425.17,425.17 0 0 0 -37.5,-32 c -14.35,-10.9 -31.15,-20.61 -46.65,-29.8 -8.41,-5 -16.81,-10 -25.64,-14.26 -7.19,-3.44 -14.28,-5.61 -22.16,-2.61 -0.36,0.14 -0.72,0.27 -1.09,0.39 a 159.52,159.52 0 0 0 -16.17,6.38 z" transform="translate(-228.48 -125.42)"></path></svg>
